<mxfile host="app.diagrams.net" agent="Mozilla/5.0 (X11; Ubuntu; Linux x86_64; rv:132.0) Gecko/20100101 Firefox/132.0" version="24.8.6">
  <diagram name="Page-1" id="WmFIYigbI2bGJBvzbAcq">
    <mxGraphModel dx="1214" dy="793" grid="1" gridSize="10" guides="1" tooltips="1" connect="1" arrows="1" fold="1" page="1" pageScale="1" pageWidth="827" pageHeight="1169" math="0" shadow="0">
      <root>
        <mxCell id="0" />
        <mxCell id="1" parent="0" />
        <mxCell id="W582OLzANp079AzozXXy-5" value="" style="edgeStyle=orthogonalEdgeStyle;rounded=0;orthogonalLoop=1;jettySize=auto;html=1;" edge="1" parent="1" source="W582OLzANp079AzozXXy-2" target="W582OLzANp079AzozXXy-4">
          <mxGeometry relative="1" as="geometry" />
        </mxCell>
        <mxCell id="W582OLzANp079AzozXXy-2" value="H2&lt;sub&gt;1&lt;/sub&gt;" style="ellipse;whiteSpace=wrap;html=1;aspect=fixed;dashed=1;dashPattern=1 2;" vertex="1" parent="1">
          <mxGeometry x="260" y="250" width="30" height="30" as="geometry" />
        </mxCell>
        <mxCell id="W582OLzANp079AzozXXy-7" value="" style="edgeStyle=orthogonalEdgeStyle;rounded=0;orthogonalLoop=1;jettySize=auto;html=1;" edge="1" parent="1" source="W582OLzANp079AzozXXy-4" target="W582OLzANp079AzozXXy-6">
          <mxGeometry relative="1" as="geometry" />
        </mxCell>
        <mxCell id="W582OLzANp079AzozXXy-4" value="H2&lt;sub&gt;2&lt;/sub&gt;" style="ellipse;whiteSpace=wrap;html=1;aspect=fixed;" vertex="1" parent="1">
          <mxGeometry x="370" y="250" width="30" height="30" as="geometry" />
        </mxCell>
        <mxCell id="W582OLzANp079AzozXXy-6" value="H2&lt;sub&gt;3&lt;/sub&gt;" style="ellipse;whiteSpace=wrap;html=1;aspect=fixed;" vertex="1" parent="1">
          <mxGeometry x="480" y="250" width="30" height="30" as="geometry" />
        </mxCell>
        <mxCell id="W582OLzANp079AzozXXy-8" value="" style="edgeStyle=orthogonalEdgeStyle;rounded=0;orthogonalLoop=1;jettySize=auto;html=1;" edge="1" parent="1" source="W582OLzANp079AzozXXy-9" target="W582OLzANp079AzozXXy-11">
          <mxGeometry relative="1" as="geometry" />
        </mxCell>
        <mxCell id="W582OLzANp079AzozXXy-9" value="H1&lt;sub&gt;1&lt;/sub&gt;" style="ellipse;whiteSpace=wrap;html=1;aspect=fixed;dashed=1;dashPattern=1 2;" vertex="1" parent="1">
          <mxGeometry x="260" y="180" width="30" height="30" as="geometry" />
        </mxCell>
        <mxCell id="W582OLzANp079AzozXXy-10" value="" style="edgeStyle=orthogonalEdgeStyle;rounded=0;orthogonalLoop=1;jettySize=auto;html=1;" edge="1" parent="1" source="W582OLzANp079AzozXXy-11" target="W582OLzANp079AzozXXy-12">
          <mxGeometry relative="1" as="geometry" />
        </mxCell>
        <mxCell id="W582OLzANp079AzozXXy-11" value="H1&lt;sub&gt;2&lt;/sub&gt;" style="ellipse;whiteSpace=wrap;html=1;aspect=fixed;" vertex="1" parent="1">
          <mxGeometry x="370" y="180" width="30" height="30" as="geometry" />
        </mxCell>
        <mxCell id="W582OLzANp079AzozXXy-12" value="H1&lt;sub&gt;3&lt;/sub&gt;" style="ellipse;whiteSpace=wrap;html=1;aspect=fixed;" vertex="1" parent="1">
          <mxGeometry x="480" y="180" width="30" height="30" as="geometry" />
        </mxCell>
        <mxCell id="W582OLzANp079AzozXXy-18" value="" style="endArrow=classic;html=1;rounded=0;exitX=1;exitY=1;exitDx=0;exitDy=0;entryX=0;entryY=0;entryDx=0;entryDy=0;" edge="1" parent="1" source="W582OLzANp079AzozXXy-9" target="W582OLzANp079AzozXXy-6">
          <mxGeometry width="50" height="50" relative="1" as="geometry">
            <mxPoint x="390" y="440" as="sourcePoint" />
            <mxPoint x="440" y="390" as="targetPoint" />
          </mxGeometry>
        </mxCell>
        <mxCell id="W582OLzANp079AzozXXy-19" value="" style="endArrow=classic;html=1;rounded=0;exitX=1;exitY=1;exitDx=0;exitDy=0;entryX=0;entryY=0;entryDx=0;entryDy=0;" edge="1" parent="1" source="W582OLzANp079AzozXXy-9" target="W582OLzANp079AzozXXy-4">
          <mxGeometry width="50" height="50" relative="1" as="geometry">
            <mxPoint x="296" y="264" as="sourcePoint" />
            <mxPoint x="384" y="216" as="targetPoint" />
          </mxGeometry>
        </mxCell>
        <mxCell id="W582OLzANp079AzozXXy-20" value="" style="endArrow=classic;html=1;rounded=0;entryX=0;entryY=1;entryDx=0;entryDy=0;" edge="1" parent="1" source="W582OLzANp079AzozXXy-2" target="W582OLzANp079AzozXXy-12">
          <mxGeometry width="50" height="50" relative="1" as="geometry">
            <mxPoint x="296" y="264" as="sourcePoint" />
            <mxPoint x="384" y="216" as="targetPoint" />
          </mxGeometry>
        </mxCell>
        <mxCell id="W582OLzANp079AzozXXy-21" value="" style="endArrow=classic;html=1;rounded=0;exitX=1;exitY=1;exitDx=0;exitDy=0;entryX=0;entryY=0;entryDx=0;entryDy=0;" edge="1" parent="1" source="W582OLzANp079AzozXXy-11" target="W582OLzANp079AzozXXy-6">
          <mxGeometry width="50" height="50" relative="1" as="geometry">
            <mxPoint x="296" y="216" as="sourcePoint" />
            <mxPoint x="384" y="264" as="targetPoint" />
          </mxGeometry>
        </mxCell>
        <mxCell id="W582OLzANp079AzozXXy-22" value="" style="edgeStyle=orthogonalEdgeStyle;rounded=0;orthogonalLoop=1;jettySize=auto;html=1;" edge="1" parent="1" target="W582OLzANp079AzozXXy-25">
          <mxGeometry relative="1" as="geometry">
            <mxPoint x="510" y="265" as="sourcePoint" />
          </mxGeometry>
        </mxCell>
        <mxCell id="W582OLzANp079AzozXXy-24" value="" style="edgeStyle=orthogonalEdgeStyle;rounded=0;orthogonalLoop=1;jettySize=auto;html=1;" edge="1" parent="1" source="W582OLzANp079AzozXXy-25" target="W582OLzANp079AzozXXy-26">
          <mxGeometry relative="1" as="geometry" />
        </mxCell>
        <mxCell id="W582OLzANp079AzozXXy-25" value="H2&lt;sub&gt;4&lt;/sub&gt;" style="ellipse;whiteSpace=wrap;html=1;aspect=fixed;" vertex="1" parent="1">
          <mxGeometry x="590" y="250" width="30" height="30" as="geometry" />
        </mxCell>
        <mxCell id="W582OLzANp079AzozXXy-26" value="H2&lt;sub&gt;5&lt;/sub&gt;" style="ellipse;whiteSpace=wrap;html=1;aspect=fixed;dashed=1;dashPattern=1 2;" vertex="1" parent="1">
          <mxGeometry x="700" y="250" width="30" height="30" as="geometry" />
        </mxCell>
        <mxCell id="W582OLzANp079AzozXXy-27" value="" style="edgeStyle=orthogonalEdgeStyle;rounded=0;orthogonalLoop=1;jettySize=auto;html=1;" edge="1" parent="1" target="W582OLzANp079AzozXXy-30">
          <mxGeometry relative="1" as="geometry">
            <mxPoint x="510" y="195" as="sourcePoint" />
          </mxGeometry>
        </mxCell>
        <mxCell id="W582OLzANp079AzozXXy-29" value="" style="edgeStyle=orthogonalEdgeStyle;rounded=0;orthogonalLoop=1;jettySize=auto;html=1;" edge="1" parent="1" source="W582OLzANp079AzozXXy-30" target="W582OLzANp079AzozXXy-31">
          <mxGeometry relative="1" as="geometry" />
        </mxCell>
        <mxCell id="W582OLzANp079AzozXXy-30" value="H1&lt;sub&gt;4&lt;/sub&gt;" style="ellipse;whiteSpace=wrap;html=1;aspect=fixed;" vertex="1" parent="1">
          <mxGeometry x="590" y="180" width="30" height="30" as="geometry" />
        </mxCell>
        <mxCell id="W582OLzANp079AzozXXy-31" value="H1&lt;sub&gt;5&lt;/sub&gt;" style="ellipse;whiteSpace=wrap;html=1;aspect=fixed;dashed=1;dashPattern=1 2;" vertex="1" parent="1">
          <mxGeometry x="700" y="180" width="30" height="30" as="geometry" />
        </mxCell>
        <mxCell id="W582OLzANp079AzozXXy-32" value="" style="endArrow=classic;html=1;rounded=0;exitX=1;exitY=1;exitDx=0;exitDy=0;entryX=0;entryY=0;entryDx=0;entryDy=0;" edge="1" parent="1" target="W582OLzANp079AzozXXy-26">
          <mxGeometry width="50" height="50" relative="1" as="geometry">
            <mxPoint x="505.6066017177982" y="205.60660171779818" as="sourcePoint" />
            <mxPoint x="660" y="390" as="targetPoint" />
          </mxGeometry>
        </mxCell>
        <mxCell id="W582OLzANp079AzozXXy-33" value="" style="endArrow=classic;html=1;rounded=0;exitX=1;exitY=1;exitDx=0;exitDy=0;entryX=0;entryY=0;entryDx=0;entryDy=0;" edge="1" parent="1" target="W582OLzANp079AzozXXy-25">
          <mxGeometry width="50" height="50" relative="1" as="geometry">
            <mxPoint x="505.6066017177982" y="205.60660171779818" as="sourcePoint" />
            <mxPoint x="604" y="216" as="targetPoint" />
          </mxGeometry>
        </mxCell>
        <mxCell id="W582OLzANp079AzozXXy-34" value="" style="endArrow=classic;html=1;rounded=0;entryX=0;entryY=1;entryDx=0;entryDy=0;" edge="1" parent="1" target="W582OLzANp079AzozXXy-31">
          <mxGeometry width="50" height="50" relative="1" as="geometry">
            <mxPoint x="509.43581933458313" y="260.9248165514814" as="sourcePoint" />
            <mxPoint x="604" y="216" as="targetPoint" />
          </mxGeometry>
        </mxCell>
        <mxCell id="W582OLzANp079AzozXXy-35" value="" style="endArrow=classic;html=1;rounded=0;exitX=1;exitY=1;exitDx=0;exitDy=0;entryX=0;entryY=0;entryDx=0;entryDy=0;" edge="1" parent="1" source="W582OLzANp079AzozXXy-30" target="W582OLzANp079AzozXXy-26">
          <mxGeometry width="50" height="50" relative="1" as="geometry">
            <mxPoint x="516" y="216" as="sourcePoint" />
            <mxPoint x="604" y="264" as="targetPoint" />
          </mxGeometry>
        </mxCell>
        <mxCell id="W582OLzANp079AzozXXy-36" value="" style="endArrow=classic;html=1;rounded=0;" edge="1" parent="1" source="W582OLzANp079AzozXXy-11" target="W582OLzANp079AzozXXy-25">
          <mxGeometry width="50" height="50" relative="1" as="geometry">
            <mxPoint x="395.8066017177982" y="209.99660171779817" as="sourcePoint" />
            <mxPoint x="594.2" y="258.39" as="targetPoint" />
          </mxGeometry>
        </mxCell>
        <mxCell id="W582OLzANp079AzozXXy-37" value="" style="endArrow=classic;html=1;rounded=0;" edge="1" parent="1" source="W582OLzANp079AzozXXy-4" target="W582OLzANp079AzozXXy-30">
          <mxGeometry width="50" height="50" relative="1" as="geometry">
            <mxPoint x="399.6358193345831" y="265.3148165514814" as="sourcePoint" />
            <mxPoint x="594.2" y="210.39" as="targetPoint" />
          </mxGeometry>
        </mxCell>
        <mxCell id="W582OLzANp079AzozXXy-38" value="H" style="text;html=1;align=center;verticalAlign=middle;whiteSpace=wrap;rounded=0;" vertex="1" parent="1">
          <mxGeometry x="210" y="210" width="30" height="30" as="geometry" />
        </mxCell>
        <mxCell id="W582OLzANp079AzozXXy-42" value="" style="edgeStyle=orthogonalEdgeStyle;rounded=0;orthogonalLoop=1;jettySize=auto;html=1;exitX=0.5;exitY=0;exitDx=0;exitDy=0;" edge="1" parent="1" source="W582OLzANp079AzozXXy-11" target="W582OLzANp079AzozXXy-41">
          <mxGeometry relative="1" as="geometry" />
        </mxCell>
        <mxCell id="W582OLzANp079AzozXXy-41" value="D1&lt;sub&gt;1&lt;/sub&gt;" style="rhombus;whiteSpace=wrap;html=1;" vertex="1" parent="1">
          <mxGeometry x="370" y="100" width="30" height="30" as="geometry" />
        </mxCell>
        <mxCell id="W582OLzANp079AzozXXy-46" value="" style="edgeStyle=orthogonalEdgeStyle;rounded=0;orthogonalLoop=1;jettySize=auto;html=1;" edge="1" parent="1" source="W582OLzANp079AzozXXy-30" target="W582OLzANp079AzozXXy-45">
          <mxGeometry relative="1" as="geometry">
            <mxPoint x="600" y="170" as="sourcePoint" />
          </mxGeometry>
        </mxCell>
        <mxCell id="W582OLzANp079AzozXXy-48" value="" style="edgeStyle=orthogonalEdgeStyle;rounded=0;orthogonalLoop=1;jettySize=auto;html=1;exitX=0.5;exitY=0;exitDx=0;exitDy=0;dashed=1;dashPattern=1 2;" edge="1" parent="1" source="W582OLzANp079AzozXXy-31" target="W582OLzANp079AzozXXy-47">
          <mxGeometry relative="1" as="geometry" />
        </mxCell>
        <mxCell id="W582OLzANp079AzozXXy-45" value="D1&lt;sub&gt;1&lt;/sub&gt;" style="rhombus;whiteSpace=wrap;html=1;" vertex="1" parent="1">
          <mxGeometry x="590" y="100" width="30" height="30" as="geometry" />
        </mxCell>
        <mxCell id="W582OLzANp079AzozXXy-47" value="D1&lt;sub&gt;1&lt;/sub&gt;" style="rhombus;whiteSpace=wrap;html=1;dashed=1;dashPattern=1 2;" vertex="1" parent="1">
          <mxGeometry x="700" y="100" width="30" height="30" as="geometry" />
        </mxCell>
        <mxCell id="W582OLzANp079AzozXXy-64" value="" style="edgeStyle=orthogonalEdgeStyle;rounded=0;orthogonalLoop=1;jettySize=auto;html=1;exitX=0.5;exitY=1;exitDx=0;exitDy=0;" edge="1" parent="1" source="W582OLzANp079AzozXXy-4" target="W582OLzANp079AzozXXy-63">
          <mxGeometry relative="1" as="geometry" />
        </mxCell>
        <mxCell id="W582OLzANp079AzozXXy-66" value="" style="edgeStyle=orthogonalEdgeStyle;rounded=0;orthogonalLoop=1;jettySize=auto;html=1;exitX=0.5;exitY=1;exitDx=0;exitDy=0;" edge="1" parent="1" source="W582OLzANp079AzozXXy-6" target="W582OLzANp079AzozXXy-65">
          <mxGeometry relative="1" as="geometry" />
        </mxCell>
        <mxCell id="W582OLzANp079AzozXXy-63" value="D1&lt;sub&gt;1&lt;/sub&gt;" style="rhombus;whiteSpace=wrap;html=1;direction=south;" vertex="1" parent="1">
          <mxGeometry x="370" y="340" width="30" height="30" as="geometry" />
        </mxCell>
        <mxCell id="W582OLzANp079AzozXXy-65" value="D1&lt;sub&gt;1&lt;/sub&gt;" style="rhombus;whiteSpace=wrap;html=1;direction=south;" vertex="1" parent="1">
          <mxGeometry x="480" y="340" width="30" height="30" as="geometry" />
        </mxCell>
        <mxCell id="W582OLzANp079AzozXXy-70" value="" style="edgeStyle=orthogonalEdgeStyle;rounded=0;orthogonalLoop=1;jettySize=auto;html=1;exitX=0.5;exitY=1;exitDx=0;exitDy=0;dashed=1;dashPattern=1 2;" edge="1" parent="1" source="W582OLzANp079AzozXXy-26" target="W582OLzANp079AzozXXy-69">
          <mxGeometry relative="1" as="geometry" />
        </mxCell>
        <mxCell id="W582OLzANp079AzozXXy-69" value="D1&lt;sub&gt;1&lt;/sub&gt;" style="rhombus;whiteSpace=wrap;html=1;direction=south;dashed=1;dashPattern=1 2;" vertex="1" parent="1">
          <mxGeometry x="700" y="340" width="30" height="30" as="geometry" />
        </mxCell>
        <mxCell id="W582OLzANp079AzozXXy-71" value="D" style="text;html=1;align=center;verticalAlign=middle;whiteSpace=wrap;rounded=0;" vertex="1" parent="1">
          <mxGeometry x="210" y="340" width="30" height="30" as="geometry" />
        </mxCell>
        <mxCell id="W582OLzANp079AzozXXy-72" value="D" style="text;html=1;align=center;verticalAlign=middle;whiteSpace=wrap;rounded=0;" vertex="1" parent="1">
          <mxGeometry x="210" y="100" width="30" height="30" as="geometry" />
        </mxCell>
      </root>
    </mxGraphModel>
  </diagram>
</mxfile>
